<?xml version="1.0" encoding="utf-8"?><!-- Uploaded to: SVG Repo, www.svgrepo.com, Generator: SVG Repo Mixer Tools -->
<svg fill="#000000" width="800px" height="800px" viewBox="0 0 24 24" id="google" data-name="Flat Color" xmlns="http://www.w3.org/2000/svg" class="icon flat-color"><path id="primary" d="M12,22A10,10,0,0,1,2,12,10,10,0,0,1,12,2a9.9,9.9,0,0,1,7.07,2.93,1,1,0,0,1,0,1.42,1,1,0,0,1-1.41,0A7.91,7.91,0,0,0,12,4a8,8,0,0,0-8,8,8,8,0,0,0,8,8,8,8,0,0,0,7.94-7H12a1,1,0,0,1,0-2h9a1,1,0,0,1,1,1A10,10,0,0,1,12,22Z" style="fill: rgb(0, 0, 0);"></path></svg>