<svg id="visual" viewBox="0 0 900 600" width="900" height="600" xmlns="http://www.w3.org/2000/svg" xmlns:xlink="http://www.w3.org/1999/xlink" version="1.1"><rect x="0" y="0" width="900" height="600" fill="#071E22"></rect><path d="M587 600L630.2 585.7C673.3 571.3 759.7 542.7 787.7 514.2C815.7 485.7 785.3 457.3 787.7 428.8C790 400.3 825 371.7 806.5 343C788 314.3 716 285.7 700.3 257C684.7 228.3 725.3 199.7 739.7 171.2C754 142.7 742 114.3 745.7 85.8C749.3 57.3 768.7 28.7 778.3 14.3L788 0L900 0L900 14.3C900 28.7 900 57.3 900 85.8C900 114.3 900 142.7 900 171.2C900 199.7 900 228.3 900 257C900 285.7 900 314.3 900 343C900 371.7 900 400.3 900 428.8C900 457.3 900 485.7 900 514.2C900 542.7 900 571.3 900 585.7L900 600Z" fill="#FD7A34" stroke-linecap="round" stroke-linejoin="miter"></path></svg>